# xmcd
#
# Track frame offsets:
#	150
#	16451
#	31100
#	47423
#	61894
#	82324
#	101433
#	104162
#	121250
#	136824
#	141092
#	162302
#	178574
#	204507
#
# Disc length: 2824 seconds
#
# Revision: 1
# Processed by: cddbd v1.5.2PL0 Copyright (c) Steve Scherf et al.
# Submitted via: EasyCDDAExtractor 12.1.0.1
#
DISCID=bb0b060e
DTITLE=Alabama 3 - Revolver Soul
DYEAR=2010
DGENRE=
TTITLE0=[intro] Oh Christ
TTITLE1=Bad To The Bone
TTITLE2=She Blessed Me
TTITLE3=Jaqueline
TTITLE4=Fix It
TTITLE5=Bad Girl
TTITLE6=If I Had A Diamond Ring
TTITLE7=Hostage
TTITLE8=Keep Your Powder Dry
TTITLE9=Come Ye Believers
TTITLE10=Vietnamistan
TTITLE11=All God's Children
TTITLE12=Revolver Soul
TTITLE13=[outro] Oh Christ
EXTD=
EXTT0=
EXTT1=
EXTT2=
EXTT3=
EXTT4=
EXTT5=
EXTT6=
EXTT7=
EXTT8=
EXTT9=
EXTT10=
EXTT11=
EXTT12=
EXTT13=
PLAYORDER=
